PathFileType	4	(X/Y/Z)	OpenSim_Sub07_CSStiffKnee_Accel.trc
DataRate	CameraRate	NumFrames	NumMarkers	Units	OrigDataRate	OrigDataStartFrame	OrigNumFrames
100	100	24	8	m	100	842	6734
Frame#	Time	torso_imu_offset_imu	pelvis_imu_offset_imu	tibia_r_imu_offset_imu	femur_r_imu_offset_imu	tibia_l_imu_offset_imu	femur_l_imu_offset_imu	toes_r_imu_offset_imu	toes_l_imu_offset_imu
				X1	Y1	Z1	X2	Y2	Z2	X3	Y3	Z3	X4	Y4	Z4	X5	Y5	Z5	X6	Y6	Z6	X7	Y7	Z7	X8		Y8	Z8	

842	8.41000000	-8.79984324	1.14183353	6.13541511	8.76448091	3.02151888	2.14407622	10.10691568	-1.85175661	1.37910449	9.63137120	-1.09045842	-0.15357786	9.05761979	-3.28132588	1.52420572	8.50620257	0.49241858	-0.26487747	4.82135959	1.06606193	8.80339267	7.97713479	5.80205103	4.47410115
843	8.42000000	-8.84404401	1.14832236	6.10489986	8.78571329	3.01017116	2.10221727	10.13847662	-1.31606700	1.22696035	9.72557267	-1.34293763	-0.02625384	10.20121477	-2.74005557	0.55061863	8.39083270	0.38899813	-0.25118088	4.98820998	1.07535488	8.82860710	10.64188168	0.85620932	1.05712887
844	8.43000000	-8.89617583	1.18501097	6.04459797	8.75591559	2.49372226	1.85458593	10.10532245	-0.99872721	1.27859145	9.75315639	-1.57629158	0.15868214	10.95184538	-1.92328447	-0.37452375	8.40658089	1.25304614	-0.16215555	5.15227718	1.18588848	8.67416191	16.03243668	-7.18824428	-1.49205580
845	8.44000000	-8.67805700	1.21954224	5.97483529	8.63915696	2.16980446	1.70134679	9.89227627	-0.82714405	1.56567458	9.51683450	-1.72459818	0.31006311	10.32510299	-1.81276082	-0.03057406	7.98854110	2.37057365	0.17435323	5.11841923	1.37861104	8.79986743	19.19534036	-1.49794254	0.43829307
846	8.45000000	-8.62516425	1.25728099	5.90159830	8.62760365	2.01052393	1.66841714	9.68825259	-0.59820424	1.51186274	9.24563089	-1.74770719	0.32649626	9.71367762	-2.89225781	0.86781770	7.84545168	3.54334598	0.54952454	5.02748637	1.38965342	8.78681657	23.20277704	0.49629794	-0.41279068
847	8.46000000	-8.67270320	1.27178361	5.86184047	8.66477987	2.09209108	1.87841579	9.53250972	-0.39680854	1.64926145	9.09294215	-1.72830330	0.16164370	10.29693666	-4.16242060	1.43756164	7.98563875	5.13382825	0.31255836	4.88142104	1.38103788	8.96023534	22.09993470	-4.05154448	-5.92644545
848	8.47000000	-8.90463872	1.32554587	6.06545114	8.81237626	2.15601464	2.01567765	9.74255060	-1.00693856	1.76324777	8.91399410	-1.65225118	0.07467611	11.48143857	-4.77350891	1.06140135	8.10717522	6.87557280	-0.23321048	4.87441554	1.55080196	9.04710120	22.25008045	-5.90461088	-12.20698632
849	8.48000000	-9.12221656	1.33703076	6.22994795	8.97680106	2.07352209	2.36628238	9.62912025	-2.14296169	2.03163663	8.61176432	-1.71645221	0.14494865	11.86859985	-4.64974248	1.42901724	7.63366277	7.80789386	-0.41889721	4.75666280	1.06903932	9.25300917	23.43490017	-8.85635622	-15.52948098
850	8.49000000	-9.37665799	1.30494938	6.43040220	9.32448495	1.97830635	3.24438937	9.80059112	-3.37146512	2.40149551	8.23048391	-1.76960933	0.21130136	13.04207754	-5.19197676	2.70971511	7.66218245	7.48800577	-0.46648018	4.21323840	0.53449040	9.53421566	44.55208191	-4.44825689	15.73659083
851	8.50000000	-9.90798083	1.24860637	6.82201154	10.07336316	1.90501926	4.52075911	10.32293559	-4.41067321	2.81974268	8.03296545	-1.82452799	0.15600008	15.55573034	-5.98494699	3.12401100	10.59293846	6.20648283	-0.52970353	3.95017573	1.13901490	9.89037483	46.53643396	1.29123967	34.55542515
852	8.51000000	-10.87156741	1.18185003	7.25348327	11.17060708	1.63588373	5.28218107	11.62505957	-4.86850584	3.85796587	8.07981430	-1.88307943	0.27370114	15.12800917	-5.45724368	2.62016620	15.35417371	4.93684381	-0.89561448	2.86254263	0.12158602	10.77722641	-19.92695183	-8.59957422	-3.04662764
853	8.52000000	-11.54004479	0.93043274	7.38939059	11.76899393	1.18460479	4.88061802	14.06024548	-4.52178485	5.27765732	8.38169423	-2.02234498	0.67825867	12.20563351	-3.30208578	2.29818664	16.91085588	3.14134897	-1.58525264	1.18232046	0.01086355	11.92389407	-2.28218396	11.75373202	15.13887677
854	8.53000000	-11.03649367	0.57756639	7.28664433	11.42673125	1.37161027	4.81395498	15.91023692	-2.32116452	5.74126542	9.08219782	-2.36073465	0.89351438	10.10343752	-0.66478564	5.65670714	13.31717215	-1.00046022	-1.12991950	-0.39228800	0.24935300	13.32917029	17.94225075	3.08375358	23.07630046
855	8.54000000	-10.41765200	0.27210496	7.22657254	11.02964221	1.98878216	4.65859545	18.55324715	-0.12591789	4.53188540	10.32714334	-3.08115370	0.91244991	8.01447300	-0.84219514	6.90416019	10.50305928	-3.65572267	-1.20515883	-0.66395975	1.26890283	14.04875106	0.61276494	-10.37543827	3.44919108
856	8.55000000	-10.04515213	0.04871665	6.84716312	10.63557778	2.39058168	4.55449253	19.75021105	0.29062199	2.72779260	11.85374415	-4.35095068	0.54612283	6.95417642	-2.46354005	3.58796630	8.97317066	-2.90650413	-1.66864849	1.64343579	4.57539442	14.00990316	6.41670344	5.10654672	11.58563522
857	8.56000000	-9.76512470	-0.02811578	6.65275715	10.12316367	2.27406251	4.29162919	18.20084854	0.06231019	-0.18036035	11.87762021	-5.42558926	-0.23501818	8.18444439	-4.06007302	-0.06232697	8.81339419	-1.17068340	-1.99465640	3.80136592	3.03149848	14.18835392	9.38726352	3.20362178	13.20287831
858	8.57000000	-9.33578515	0.02298130	6.30745092	9.45410372	1.85428884	4.07375695	16.80328341	-0.24480751	-0.64158776	10.56715487	-6.11717377	-0.69338643	10.89933579	-6.32286416	-3.72149312	9.29470007	0.27318856	-2.37146871	3.41640680	-0.65039660	11.35312945	4.83636696	-0.60096101	8.25815600
859	8.58000000	-9.06452277	0.00250228	6.08389012	9.32275519	1.14075132	3.67972213	15.67019278	-0.47624232	-0.61146456	10.48350498	-5.25817499	0.27006201	11.05358531	-8.74305678	-4.02724236	9.55081566	1.33394323	-2.72998927	7.68746229	1.72446328	13.92933294	5.32780456	3.41800326	12.43601218
860	8.59000000	-9.25040459	-0.08098776	6.05801189	9.76025324	0.47917315	3.71682447	14.33479807	0.02137506	-1.66856747	11.09197981	-2.88725195	1.44161039	9.59553737	-9.73954325	-1.10456029	10.49609276	1.18708686	-3.38311554	7.56666880	-5.62979561	13.41683618	5.99539577	1.20899805	10.35592537
861	8.60000000	-9.36505341	-0.11395839	6.16995374	10.16074677	0.08544498	3.78819326	12.81034730	1.92586725	0.06355491	12.04361144	-0.78298643	2.35894432	9.21765825	-6.23736882	2.47826386	10.66066348	0.68126374	-3.96518729	5.41756606	-2.43707531	10.95814430	5.18828669	2.41624871	11.17633026
862	8.61000000	-9.43650350	-0.13552216	6.38303074	10.48904257	-0.13297518	3.69489886	11.11621938	3.34296276	1.09840667	12.85298117	1.01627432	3.04426463	10.32823868	-2.75364435	1.67187709	9.83962239	0.56370710	-4.31528077	9.98028916	-6.07582248	10.48459331	5.42569509	0.88224925	10.89405206
863	8.62000000	-9.53781098	-0.08269866	6.55422521	10.60662648	-0.40350648	3.47215924	9.30023707	5.64426070	0.46024181	12.89567007	2.33409392	3.17973758	10.14791728	-1.12520500	0.09461669	9.71057553	0.49576800	-4.07781085	13.09360756	-9.73526613	13.49775821	5.09343850	1.19581420	11.34803528
864	8.63000000	-9.50277138	-0.05019247	6.65511026	10.46771293	-0.59356805	3.28663251	8.28517329	8.48674966	-2.54968217	13.10412706	2.95263642	2.67446569	10.53736607	-0.94361945	0.29842859	9.69963039	0.46904277	-3.20657695	11.32849017	-8.21063007	12.55001111	5.40676325	0.99830110	10.94032378
865	8.64000000	-9.44705806	0.06400572	6.68308797	10.29741261	-0.46032118	3.11975779	8.07574376	9.24366057	-4.29756097	14.08235400	2.85843868	2.36548249	10.52301950	-0.32026095	0.67984128	9.67999954	1.07915443	-2.36606246	6.16315882	-9.92357444	9.31814872	5.31373077	1.43324999	10.85983404
